<svg width="48" height="48" viewBox="0 0 48 48" fill="none" xmlns="http://www.w3.org/2000/svg">
<rect width="48" height="48" rx="8" fill="#C1946B"/>
<path d="M38.1667 16.8H28.25V14H38.1667V16.8ZM40.575 30.8C40.0083 32.62 37.7417 35 33.35 35C28.9583 35 25.4167 32.62 25.4167 27.02C25.4167 21.56 28.675 18.76 33.2083 18.76C37.6 18.76 40.2917 21.28 40.8583 24.92C41 25.62 41 26.6 41 28H29.6667C29.8083 32.48 34.625 32.62 36.1833 30.8H40.575ZM29.6667 25.2H36.75C36.6083 23.1 35.1917 22.12 33.2083 22.12C31.225 22.12 30.0917 23.1 29.6667 25.2ZM16.2083 35H7V14H16.9167C24.7083 14.14 24.85 21.56 20.7417 23.66C25.5583 25.48 25.7 35 16.2083 35ZM11.25 22.4H16.35C19.8917 22.4 20.4583 18.2 15.925 18.2H11.25V22.4ZM16.0667 26.6H11.25V30.8H15.925C20.3167 30.8 20.0333 26.6 16.0667 26.6Z" fill="white"/>
</svg>
