<svg width="48" height="48" viewBox="0 0 48 48" fill="none" xmlns="http://www.w3.org/2000/svg">
<rect width="48" height="48" rx="8" fill="#C1946B"/>
<g clip-path="url(#clip0_93_17328)">
<path fill-rule="evenodd" clip-rule="evenodd" d="M24.0141 7C14.6057 7 7 14.6618 7 24.1405C7 31.7173 11.8733 38.1309 18.6337 40.4009C19.479 40.5716 19.7886 40.0321 19.7886 39.5783C19.7886 39.1809 19.7607 37.8189 19.7607 36.3997C15.0278 37.4215 14.0422 34.3564 14.0422 34.3564C13.2816 32.37 12.1546 31.8594 12.1546 31.8594C10.6056 30.8094 12.2675 30.8094 12.2675 30.8094C13.9858 30.9229 14.8875 32.5688 14.8875 32.5688C16.4083 35.1794 18.8591 34.4418 19.845 33.9876C19.9857 32.8809 20.4367 32.1147 20.9156 31.6891C17.1407 31.2917 13.1691 29.8161 13.1691 23.2322C13.1691 21.3593 13.8448 19.8269 14.9153 18.6351C14.7464 18.2096 14.1547 16.4498 15.0846 14.0945C15.0846 14.0945 16.5212 13.6403 19.7604 15.8539C21.1472 15.4787 22.5774 15.2878 24.0141 15.2862C25.4507 15.2862 26.9151 15.4851 28.2674 15.8539C31.507 13.6403 32.9435 14.0945 32.9435 14.0945C33.8734 16.4498 33.2814 18.2096 33.1125 18.6351C34.2112 19.8269 34.859 21.3593 34.859 23.2322C34.859 29.8161 30.8874 31.2632 27.0844 31.6891C27.7043 32.2282 28.2392 33.2497 28.2392 34.8674C28.2392 37.1659 28.2113 39.0106 28.2113 39.578C28.2113 40.0321 28.5213 40.5716 29.3662 40.4013C36.1267 38.1306 40.9999 31.7173 40.9999 24.1405C41.0278 14.6618 33.3942 7 24.0141 7Z" fill="white"/>
</g>
<defs>
<clipPath id="clip0_93_17328">
<rect width="34" height="34" fill="white" transform="translate(7 7)"/>
</clipPath>
</defs>
</svg>
