<svg width="48" height="48" viewBox="0 0 48 48" fill="none" xmlns="http://www.w3.org/2000/svg">
<rect width="48" height="48" rx="8" fill="#C1946B"/>
<path d="M7.56589 41H14.6164V18.2776H7.56589V41Z" fill="#F6F4F0"/>
<path d="M7 11.0908C7 13.35 8.82756 15.1816 11.0911 15.1816C13.3454 15.1816 15.173 13.3407 15.173 11.0908C15.173 8.83156 13.3454 7 11.0911 7C8.82756 7 7 8.83156 7 11.0908Z" fill="#F6F4F0"/>
<path d="M33.9588 41H41V28.5324C41 22.4148 39.6827 17.7104 32.5487 17.7104C29.1255 17.7104 26.8248 19.5978 25.8879 21.3828H25.7951V18.2776H19.0415V41H26.0734V29.7689C26.0734 26.8031 26.63 23.9303 30.2944 23.9303C33.9124 23.9303 33.9588 27.3238 33.9588 29.9549V41Z" fill="#F6F4F0"/>
</svg>
