<svg width="48" height="48" viewBox="0 0 48 48" fill="none" xmlns="http://www.w3.org/2000/svg">
<rect width="48" height="48" rx="8" fill="#C1946B"/>
<path fill-rule="evenodd" clip-rule="evenodd" d="M37.8807 12C38.8995 12 39.8042 12.466 40.3735 13.1868L23.8408 26.4169L7.45535 13.427C8.0032 12.5712 8.99132 12 10.1193 12H37.8807ZM7 34.0238V15.7747L18.757 25.0952L7.02424 34.3966C7.00824 34.2745 7 34.1501 7 34.0238ZM8.07525 36.272C8.62268 36.7255 9.33737 37 10.1193 37H37.8807C38.5528 37 39.1752 36.7972 39.6844 36.4523L27.1912 26.4548L24.9446 28.2526C24.3092 28.7611 23.3836 28.7631 22.7458 28.2575L20.4653 26.4496L8.07525 36.272ZM28.8902 25.0952L40.9147 34.7178C40.9705 34.4951 41 34.2628 41 34.0238V15.4045L28.8902 25.0952Z" fill="white"/>
</svg>
